<svg data-v-fde0c5aa="" xmlns="http://www.w3.org/2000/svg" viewBox="0 0 300 300" class="iconAbove"><!----><defs data-v-fde0c5aa=""><!----></defs><rect data-v-fde0c5aa="" fill="transparent" x="0" y="0" width="300px" height="300px" class="logo-background-square"></rect><defs data-v-fde0c5aa=""><!----></defs><g data-v-fde0c5aa="" id="e0ddd1a3-77d1-4621-a8a4-9ed76caf383a" fill="#001e3c" transform="matrix(2.4324071614241136,0,0,2.4324071614241136,18.345963112833672,167.28234689498845)"><path d="M3.72 4.22C2.09 4.22 0.68 5.35 0.68 6.79C0.68 7.82 1.07 8.59 2.38 9.17L3.90 9.86C4.46 10.10 5.21 10.49 5.21 11.17C5.21 11.98 4.40 12.46 3.49 12.46C2.32 12.46 1.41 11.99 0.70 11.50L0.70 12.77C1.35 13.23 2.27 13.66 3.32 13.66C5.00 13.66 6.47 12.61 6.47 11.12C6.47 9.97 5.82 9.37 4.57 8.79L3.31 8.22C2.56 7.88 1.96 7.57 1.96 6.84C1.96 5.85 3.02 5.43 3.86 5.43C4.70 5.43 5.46 5.84 5.97 6.22L5.97 4.95C5.44 4.61 4.80 4.22 3.72 4.22ZM11.40 6.55C9.32 6.55 7.83 8.20 7.83 10.14C7.83 12.09 9.32 13.73 11.40 13.73C13.48 13.73 14.97 12.09 14.97 10.14C14.97 8.20 13.48 6.55 11.40 6.55ZM11.40 7.64C12.87 7.64 13.81 8.82 13.81 10.14C13.81 11.47 12.87 12.63 11.40 12.63C9.94 12.63 9.00 11.47 9.00 10.14C9.00 8.82 9.94 7.64 11.40 7.64ZM19.37 4.22C17.75 4.22 16.34 5.35 16.34 6.79C16.34 7.82 16.72 8.59 18.03 9.17L19.55 9.86C20.11 10.10 20.86 10.49 20.86 11.17C20.86 11.98 20.06 12.46 19.14 12.46C17.98 12.46 17.06 11.99 16.35 11.50L16.35 12.77C17.01 13.23 17.92 13.66 18.98 13.66C20.66 13.66 22.12 12.61 22.12 11.12C22.12 9.97 21.48 9.37 20.22 8.79L18.96 8.22C18.21 7.88 17.61 7.57 17.61 6.84C17.61 5.85 18.68 5.43 19.51 5.43C20.36 5.43 21.11 5.84 21.63 6.22L21.63 4.95C21.10 4.61 20.45 4.22 19.37 4.22ZM33.99 13.52L35.88 13.52L31.40 9.71C31.58 9.72 31.73 9.72 31.86 9.72C33.44 9.72 35.11 8.82 35.11 7.11C35.11 5.22 33.50 4.36 31.92 4.36L28.41 4.36L28.41 13.52L29.64 13.52L29.64 9.67ZM29.64 5.52L31.72 5.52C32.89 5.52 33.85 6.08 33.85 7.11C33.85 8.09 33.06 8.72 31.68 8.72C30.98 8.72 30.24 8.63 29.64 8.46ZM42.72 9.87C42.72 8.00 41.69 6.55 39.58 6.55C37.65 6.55 36.29 8.20 36.29 10.14C36.29 12.09 37.78 13.73 39.85 13.73C40.92 13.73 41.63 13.26 41.90 12.99L41.90 11.85C41.45 12.18 40.84 12.63 39.85 12.63C38.54 12.63 37.64 11.69 37.47 10.54L42.72 10.54ZM37.50 9.58C37.69 8.50 38.46 7.64 39.58 7.64C40.54 7.64 41.48 8.26 41.62 9.58ZM47.39 6.55C45.51 6.55 44.09 7.96 44.09 10.21C44.09 12.29 45.51 13.73 47.28 13.73C48.32 13.73 49.15 13.08 49.63 12.36L49.63 13.79C49.63 15.15 48.48 15.91 47.15 15.91C45.96 15.91 45.04 15.29 44.65 15.07L44.65 16.27C45.13 16.57 45.88 17.01 47.15 17.01C49.10 17.01 50.75 15.83 50.75 13.38L50.75 6.69L49.63 6.69L49.63 7.60C49.04 6.95 48.17 6.55 47.39 6.55ZM47.59 7.66C48.43 7.66 49.04 8.07 49.62 8.78L49.63 10.09C49.64 11.55 48.70 12.62 47.46 12.62C46.13 12.62 45.25 11.54 45.25 10.21C45.25 8.89 46.13 7.66 47.59 7.66ZM54.17 5.26C54.69 5.26 55.10 4.81 55.10 4.33C55.10 3.84 54.69 3.40 54.17 3.40C53.63 3.40 53.24 3.84 53.24 4.33C53.24 4.81 53.63 5.26 54.17 5.26ZM54.87 6.69L52.66 6.69L52.66 7.74L53.74 7.74L53.74 13.52L54.87 13.52ZM59.32 6.55C57.86 6.55 56.92 7.41 56.92 8.57C56.92 9.35 57.16 9.98 58.23 10.38L59.24 10.75C59.88 10.98 60.22 11.20 60.22 11.63C60.22 12.21 59.69 12.63 58.83 12.63C58.15 12.63 57.19 12.21 56.81 11.92L56.81 13.13C57.12 13.36 58.11 13.73 58.91 13.73C60.38 13.73 61.43 12.80 61.43 11.63C61.43 10.86 60.99 10.25 60.10 9.94L58.95 9.53C58.32 9.31 58.12 8.91 58.12 8.57C58.12 8.13 58.54 7.64 59.40 7.64C60.09 7.64 60.81 7.98 61.20 8.27L61.20 7.07C60.88 6.84 60.13 6.55 59.32 6.55ZM65.02 6.69L65.02 4.72L64.50 4.72C64.05 6.07 63.48 7.01 62.59 7.41L62.59 7.74L63.90 7.74L63.90 11.80C63.90 12.96 64.50 13.73 65.67 13.73C66.35 13.73 66.71 13.54 67.07 13.25L67.07 12.33C66.80 12.50 66.46 12.66 65.91 12.66C65.31 12.66 65.02 12.32 65.02 11.74L65.02 7.74L67.02 7.74L67.02 6.69ZM72.28 6.55C71.50 6.55 70.70 7.15 70.18 8.05L70.18 6.69L69.06 6.69L69.06 13.52L70.18 13.52L70.18 9.39C70.68 8.48 71.19 7.72 72.12 7.72C72.47 7.72 72.83 7.86 73.12 8.08L73.12 6.74C72.87 6.62 72.60 6.55 72.28 6.55ZM77.37 6.55C75.50 6.55 74.07 7.96 74.07 10.21C74.07 12.29 75.50 13.73 77.26 13.73C78.30 13.73 79.13 13.08 79.61 12.36L79.61 13.52L80.73 13.52L80.73 6.69L79.61 6.69L79.61 7.60C79.02 6.95 78.15 6.55 77.37 6.55ZM77.57 7.64C78.41 7.64 79.02 8.07 79.60 8.78L79.61 10.09C79.63 11.55 78.68 12.63 77.44 12.63C76.11 12.63 75.24 11.54 75.24 10.21C75.24 8.89 76.11 7.64 77.57 7.64ZM84.94 6.69L84.94 4.72L84.42 4.72C83.97 6.07 83.40 7.01 82.51 7.41L82.51 7.74L83.82 7.74L83.82 11.80C83.82 12.96 84.42 13.73 85.59 13.73C86.27 13.73 86.63 13.54 86.99 13.25L86.99 12.33C86.72 12.50 86.38 12.66 85.83 12.66C85.23 12.66 84.94 12.32 84.94 11.74L84.94 7.74L86.94 7.74L86.94 6.69ZM90.07 5.26C90.59 5.26 91 4.81 91 4.33C91 3.84 90.59 3.40 90.07 3.40C89.54 3.40 89.14 3.84 89.14 4.33C89.14 4.81 89.54 5.26 90.07 5.26ZM90.77 6.69L88.57 6.69L88.57 7.74L89.65 7.74L89.65 13.52L90.77 13.52ZM96.28 6.55C94.20 6.55 92.71 8.20 92.71 10.14C92.71 12.09 94.20 13.73 96.28 13.73C98.36 13.73 99.85 12.09 99.85 10.14C99.85 8.20 98.36 6.55 96.28 6.55ZM96.28 7.64C97.74 7.64 98.68 8.82 98.68 10.14C98.68 11.47 97.74 12.63 96.28 12.63C94.81 12.63 93.87 11.47 93.87 10.14C93.87 8.82 94.81 7.64 96.28 7.64ZM105.04 6.55C104.11 6.55 103.24 7.23 102.81 7.77L102.81 6.69L101.69 6.69L101.69 13.52L102.81 13.52L102.81 8.98C103.36 8.27 104.13 7.64 104.85 7.64C105.93 7.64 106.44 8.29 106.44 9.46L106.45 13.52L107.57 13.52L107.57 9.35C107.57 7.46 106.44 6.55 105.04 6.55Z"></path></g><defs data-v-fde0c5aa=""><!----></defs><g data-v-fde0c5aa="" id="233140d1-8125-448f-a74b-4a0a225eea11" stroke="none" fill="#666C35" transform="matrix(0.6939827876329162,0,0,0.6939827876329162,115.30051381756843,89.74832715705067)"><path d="M58.669 56.887V43.113c0-5.7-4.354-8.676-8.664-8.676-4.311 0-8.676 2.976-8.676 8.676v13.773c0 5.688 4.365 8.677 8.676 8.677 4.309 0 8.664-2.988 8.664-8.676zm-13.772 0V43.113c0-3.522 2.571-5.109 5.108-5.109 2.539 0 5.097 1.587 5.097 5.109v13.773c0 3.522-2.559 5.099-5.097 5.099-2.537 0-5.108-1.576-5.108-5.098zM27.042 61.985c-2.537 0-5.108-1.576-5.108-5.099 0-.985-.799-1.781-1.781-1.781-.986 0-1.784.796-1.784 1.781 0 5.688 4.365 8.677 8.673 8.677 4.311 0 8.676-2.988 8.676-8.677 0-5.873-4.692-7.439-8.116-8.576-3.721-1.247-5.668-2.047-5.668-5.197 0-3.522 2.571-5.109 5.108-5.109 2.539 0 5.101 1.587 5.101 5.109 0 .984.797 1.783 1.781 1.783.997 0 1.794-.799 1.794-1.783 0-5.7-4.365-8.676-8.676-8.676-4.308 0-8.673 2.976-8.673 8.676 0 5.874 4.681 7.439 8.106 8.577 3.729 1.247 5.667 2.035 5.667 5.196.001 3.523-2.561 5.099-5.1 5.099zM72.958 38.004c2.537 0 5.107 1.587 5.107 5.109a1.783 1.783 0 0 0 3.565 0c0-5.7-4.365-8.676-8.673-8.676-4.312 0-8.667 2.976-8.667 8.676 0 5.874 4.684 7.439 8.106 8.577 3.721 1.247 5.668 2.035 5.668 5.196 0 3.522-2.57 5.099-5.107 5.099-2.539 0-5.101-1.576-5.101-5.099a1.782 1.782 0 1 0-3.566 0c0 5.688 4.355 8.677 8.667 8.677 4.308 0 8.673-2.988 8.673-8.677 0-5.873-4.681-7.439-8.106-8.576-3.718-1.247-5.667-2.047-5.667-5.197 0-3.522 2.562-5.109 5.101-5.109zM9.18 77.554c0 .982.809 1.781 1.794 1.781h78.065c.983 0 1.784-.799 1.784-1.781 0-.987-.801-1.785-1.784-1.785H10.974c-.985 0-1.794.797-1.794 1.785zM90.823 22.447c0-.984-.801-1.782-1.784-1.782H10.974c-.985 0-1.794.798-1.794 1.782 0 .985.809 1.783 1.794 1.783h78.065c.983 0 1.784-.797 1.784-1.783z"></path><path d="M98.217 57.401c-.984 0-1.781.799-1.781 1.783V86.73c0 7.133-6.651 7.395-7.396 7.405H10.974c-.755-.011-7.396-.272-7.396-7.405V51.789h7.396c.983 0 1.784-.799 1.784-1.794 0-.985-.8-1.784-1.784-1.784h-9.19C.8 48.211 0 49.01 0 49.995V86.73c0 8.687 7.176 10.973 10.974 10.973h78.065c3.785 0 10.961-2.286 10.961-10.973V59.185c0-.985-.798-1.784-1.783-1.784zM89.039 2.297H10.974C7.176 2.297 0 4.584 0 13.259v27.557c0 .986.8 1.783 1.784 1.783s1.794-.797 1.794-1.783V13.259c0-7.121 6.641-7.385 7.396-7.395h78.053c.758.01 7.409.273 7.409 7.395v34.952H89.04a1.79 1.79 0 0 0 0 3.578h9.178c.985 0 1.783-.799 1.783-1.794V13.259C100 4.584 92.824 2.297 89.039 2.297z"></path></g><!----></svg>